<svg version="1.1" viewBox="0.0 0.0 100.0 100.0" fill="none" stroke="none" stroke-linecap="square" stroke-miterlimit="10" xmlns:xlink="http://www.w3.org/1999/xlink" xmlns="http://www.w3.org/2000/svg"><clipPath id="p.0"><path d="m0 0l100.0 0l0 100.0l-100.0 0l0 -100.0z" clip-rule="nonzero"/></clipPath><g clip-path="url(#p.0)"><path fill="#000000" fill-opacity="0.0" d="m0 0l100.0 0l0 100.0l-100.0 0z" fill-rule="evenodd"/><path fill="#48bf84" d="m28.532795 65.309906l-13.721636 0.82380676l-7.786326 -13.483322l7.5733123 -11.47065l13.721635 -0.82380295l7.7863255 13.483322z" fill-rule="evenodd"/><path fill="#0f5257" d="m49.90352 53.0208l-13.721634 0.82380295l-7.7863255 -13.483322l7.5733128 -11.47065l13.721634 -0.82380295l7.7863274 13.483322z" fill-rule="evenodd"/><path fill="#67648a" d="m50.270584 77.539825l-13.721634 0.82380676l-7.7863274 -13.48333l7.5733147 -11.470646l13.721634 -0.82380295l7.7863274 13.483322z" fill-rule="evenodd"/><path fill="#67648a" d="m71.14754 40.383865l-13.721638 0.82380295l-7.7863235 -13.483322l7.573311 -11.47065l13.721638 -0.8238039l7.7863235 13.483323z" fill-rule="evenodd"/><path fill="#0f5257" d="m71.33106 90.48311l-13.721638 0.82380676l-7.7863235 -13.483322l7.573311 -11.47065l13.721638 -0.82380676l7.7863235 13.483322z" fill-rule="evenodd"/><path fill="#48bf84" d="m71.844574 65.30742l-13.721634 0.82379913l-7.7863235 -13.483322l7.573311 -11.47065l13.721634 -0.82380295l7.786331 13.483322z" fill-rule="evenodd"/></g></svg>