<svg version="1.1" viewBox="0.0 0.0 266.03412073490813 104.1259842519685" fill="none" stroke="none" stroke-linecap="square" stroke-miterlimit="10" xmlns:xlink="http://www.w3.org/1999/xlink" xmlns="http://www.w3.org/2000/svg"><clipPath id="p.0"><path d="m0 0l266.03412 0l0 104.125984l-266.03412 0l0 -104.125984z" clip-rule="nonzero"/></clipPath><g clip-path="url(#p.0)"><path fill="#000000" fill-opacity="0.0" d="m0 0l266.03412 0l0 104.125984l-266.03412 0z" fill-rule="evenodd"/><path fill="#000000" fill-opacity="0.0" d="m115.06618 8.4513855l268.15747 0l0 23.559055l-268.15747 0z" fill-rule="evenodd"/><path fill="#0f5257" d="m128.61305 36.594513l7.734375 -1.28125l0 10.109375l11.90625 0l0 6.453125l-11.90625 0l0 13.640625q0 4.03125 1.28125 5.765625q1.28125 1.71875 4.359375 1.71875q2.109375 0 3.734375 -0.4375q1.640625 -0.453125 2.59375 -0.84375l1.28125 6.140625q-1.34375 0.578125 -3.515625 1.1875q-2.171875 0.609375 -5.125 0.609375q-3.578125 0 -5.984375 -0.953125q-2.390625 -0.96875 -3.796875 -2.78125q-1.40625 -1.828125 -1.984375 -4.421875q-0.578125 -2.59375 -0.578125 -5.921875l0 -28.984375zm46.20508 15.796875q-0.953125 -0.3125 -2.65625 -0.65625q-1.703125 -0.359375 -3.9375 -0.359375q-1.28125 0 -2.71875 0.25q-1.4375 0.25 -2.015625 0.453125l0 26.8125l-7.75 0l0 -31.875q2.25 -0.828125 5.609375 -1.5625q3.359375 -0.734375 7.453125 -0.734375q0.765625 0 1.78125 0.09375q1.03125 0.09375 2.046875 0.265625q1.03125 0.15625 1.984375 0.375q0.96875 0.21875 1.546875 0.40625l-1.34375 6.53125zm14.526337 26.5l-7.75 0l0 -33.46875l7.75 0l0 33.46875zm0.828125 -43.265625q0 2.171875 -1.40625 3.453125q-1.40625 1.28125 -3.328125 1.28125q-1.984375 0 -3.390625 -1.28125q-1.40625 -1.28125 -1.40625 -3.453125q0 -2.234375 1.40625 -3.515625q1.40625 -1.28125 3.390625 -1.28125q1.921875 0 3.328125 1.28125q1.40625 1.28125 1.40625 3.515625zm21.054596 20.734375l7.109375 -10.9375l8.125 0l-11.0 15.8125q3.453125 4.46875 6.609375 9.046875q3.171875 4.578125 5.234375 8.609375l-8.390625 0q-0.578125 -1.21875 -1.515625 -2.78125q-0.921875 -1.578125 -1.984375 -3.265625q-1.046875 -1.703125 -2.203125 -3.359375q-1.140625 -1.671875 -2.234375 -3.140625q-2.234375 2.890625 -4.390625 6.375q-2.140625 3.484375 -3.546875 6.171875l-7.9375 0q0.96875 -1.921875 2.3125 -4.09375q1.34375 -2.171875 2.875 -4.4375q1.53125 -2.28125 3.15625 -4.546875q1.640625 -2.28125 3.25 -4.328125l-11.078125 -16.0625l8.515625 0l7.09375 10.9375z" fill-rule="nonzero"/><path fill="#48bf84" d="m54.91482 62.8506l-13.721638 0.82380676l-7.7863235 -13.483326l7.573311 -11.47065l13.721638 -0.82380295l7.7863235 13.483322z" fill-rule="evenodd"/><path fill="#0f5257" d="m76.285545 50.561497l-13.721634 0.82380295l-7.7863274 -13.483322l7.5733147 -11.470652l13.721634 -0.82380295l7.7863235 13.483324z" fill-rule="evenodd"/><path fill="#67648a" d="m76.65261 75.08052l-13.721634 0.82379913l-7.7863274 -13.483322l7.573311 -11.47065l13.721638 -0.82380295l7.7863235 13.483322z" fill-rule="evenodd"/><path fill="#67648a" d="m97.529564 37.92456l-13.721634 0.82380295l-7.786331 -13.483324l7.573311 -11.47065l13.721642 -0.8238039l7.7863235 13.483323z" fill-rule="evenodd"/><path fill="#0f5257" d="m97.71309 88.0238l-13.721634 0.82379913l-7.786331 -13.483322l7.5733185 -11.470646l13.721634 -0.82380676l7.7863235 13.483326z" fill-rule="evenodd"/><path fill="#48bf84" d="m98.2266 62.84811l-13.721634 0.82380295l-7.7863235 -13.483322l7.573311 -11.470654l13.721634 -0.82380295l7.7863235 13.483322z" fill-rule="evenodd"/></g></svg>